<svg xmlns="http://www.w3.org/2000/svg" width="256" height="256" viewBox="0 0 256 256" role="img" aria-labelledby="title desc">
  <title id="title">KyMoRem KMR icon</title>
  <desc id="desc">Cyber Noir KyMoRem icon with the KMR mark.</desc>
  <defs>
    <linearGradient id="edge" x1="20" y1="24" x2="236" y2="232" gradientUnits="userSpaceOnUse">
      <stop stop-color="#00f5ff"/>
      <stop offset="0.56" stop-color="#ff2bd6"/>
      <stop offset="1" stop-color="#b7ff2a"/>
    </linearGradient>
  </defs>
  <rect x="16" y="16" width="224" height="224" rx="32" fill="#04060c"/>
  <path d="M40 54h118c16 0 30 14 30 30v76c0 16-14 30-30 30H40c-16 0-30-14-30-30V84c0-16 14-30 30-30Z" fill="#0b1020" stroke="url(#edge)" stroke-width="6"/>
  <path d="M186 82h22c18 0 32 14 32 32v38c0 18-14 32-32 32h-22" fill="none" stroke="#00f5ff" stroke-width="8" stroke-linecap="round"/>
  <text x="128" y="124" text-anchor="middle" fill="#f7fbff" font-family="Consolas, 'Segoe UI Mono', monospace" font-size="54" font-weight="800" letter-spacing="0">KMR</text>
  <text x="128" y="154" text-anchor="middle" fill="#00f5ff" font-family="Segoe UI, Arial, sans-serif" font-size="17" font-weight="700" letter-spacing="0">KyMoRem</text>
  <path d="M56 202c30 18 114 18 146 0" fill="none" stroke="#b7ff2a" stroke-width="8" stroke-linecap="round"/>
</svg>
